<?xml version="1.0" encoding="UTF-8"?>
<svg width="160" height="160" fill="none" version="1.1" viewBox="0 0 160 160" xml:space="preserve" xmlns="http://www.w3.org/2000/svg"><path d="m105.24039 28.253118c-13.031445-0.172678-28.926074 4.582216-44.084785 15.119514v0.0024s-32.355511 22.76212-35.119452 52.9218c0 0-2.601582 18.941718 7.966848 28.209398 10.242347 10.40479 37.55932 12.19282 49.021193-10.00114 0 0-25.283931 16.66601-41.46027-0.89349 0 0-13.983054-17.55908 6.259167-47.150205 20.242222-29.59232 50.159569-35.444097 65.442469-33.736043 16.00076 1.704469 23.15694 17.8557 15.46712 31.505792l0.0724-0.107309c0.93406-1.346137 8.30535-11.958729 1.77533-24.488434-4.57266-7.240002-13.84161-11.229848-25.33994-11.382211zm-11.323894 26.665029-7.560923 17.967983-15.201166-6.179847 6.177515 15.201165-17.96565 7.560923 17.96565 7.479273-6.177515 15.203496 15.201166-6.17985 7.560923 17.96565 7.560934-17.96565 15.20116 6.17985-6.25916-15.203496 17.96564-7.479273-17.96564-7.558591v-0.0024l6.25916-15.201109-15.20116 6.177514z" fill="#45d" stroke-width="1.19444"/></svg>
