<?xml version="1.0" encoding="UTF-8"?>
<svg fill="none" version="1.1" viewBox="0 0 160 160" xml:space="preserve" xmlns="http://www.w3.org/2000/svg"><path d="m69.62828 33.065402c-5.018617 0-9.296646 3.454131-10.695726 8.226793-0.822518 2.467553-1.314678 5.675464-0.656892 9.953929 1.9745 13.410812 13.985788 27.233774 21.802567 31.924069 0 0 0.08074-3.04e-4 0.163105-0.08267v0.08267c7.899144-4.690295 19.829156-18.595623 21.804806-31.924069 0.65664-4.606785 0.0801-7.979322-0.90714-10.530385-1.563814-4.442053-5.676503-7.650337-10.530387-7.650337-4.853883 0-8.967716 3.208284-10.530384 7.650337-1.481447-4.442053-5.594923-7.650337-10.449949-7.650337zm-14.2349 48.192207c-5.431019 0.0251-10.889849 0.842843-15.548685 2.817487-3.948999 1.727401-6.497944 3.783362-8.144122 5.757862-3.373581 3.703045-4.114484 9.132275-1.398691 13.493102 2.551064 4.11373 7.403817 5.92511 12.011745 4.93787-3.044116 3.62067-3.619071 8.80404-1.068008 12.91664 2.467554 4.11373 7.404959 5.92287 12.011744 4.93562 2.632284-0.41182 5.840606-1.7281 9.460142-4.68985 10.367841-8.72051 15.96173-26.163317 15.879365-35.295663l-0.08267 0.08267v-0.163106c-5.090687-2.67404-14.069123-4.834469-23.12082-4.792632zm49.45237 0.08267c-9.0517-0.04184-18.03237 2.116358-23.123057 4.790398v0.165341l-0.08267-0.08267c-0.08236 9.132345 5.513811 26.575152 15.879364 35.295662 3.703053 2.88054 6.830393 4.19536 9.545053 4.60718 4.60792 0.98725 9.54418-0.82189 12.01174-4.93562 2.55105-4.11374 1.97388-9.29597-1.07025-12.91664 4.60793 0.98724 9.46068-0.82414 12.01175-4.93787 2.63229-4.278467 1.89221-9.707386-1.48136-13.410432-1.64504-1.974499-4.19513-4.030459-8.14412-5.757861-4.65884-1.974643-10.11543-2.792384-15.54645-2.817486z" fill="#8d4" stroke-width="1.14398"/></svg>
