<?xml version="1.0" encoding="UTF-8"?>
<svg fill="none" version="1.1" viewBox="0 0 160 160" xml:space="preserve" xmlns="http://www.w3.org/2000/svg"><path d="m89.190303 33.742147c-23.812891 0-43.110804 19.297912-43.110804 43.110803 0 23.81289 19.296799 43.10853 43.10852 43.10853 20.939491 0 38.347381-14.94351 42.288521-34.65037 0.1649-2.217328-0.49144-3.450745-2.13338-2.7935-1.46302 0.574214-1.69645 1.848491-1.96894 3.332557-0.15554 0.84904-0.32255 1.7652-0.74005 2.661019-1.23263 2.464088-2.38279 1.644669-2.2179-0.162174 0.16373-1.806841 0.16374-3.120716-1.56007-3.777962-1.72498-0.657246-3.28532 0.656847-3.44905 3.037902-0.16489 2.381056-0.41009 4.845151-3.03789 7.309239-2.62782 2.381056-5.91122-0.164881-4.84466-2.875729 0.39061-1.071241 1.13956-2.194783 2.02603-3.522139 1.35308-2.027874 3.02254-4.531403 4.21424-8.053867 1.97055-5.831013-2.38313-9.0323-5.42027-8.704848-1.64311 0.245591-2.62742 1.314185-3.0379 2.546814-0.41049 1.066563-0.49382 2.216125-0.32892 3.120132 0.16373 1.066562 0.16446 2.052471 0.16446 2.873444a20.042517 20.042517 0 0 1-19.787478 16.58512c-11.085474 0-20.118681-9.032038-20.118681-20.118681 1e-6 -9.606084 6.815472-17.652453 15.847344-19.623021 0.902836-0.163727 1.890298-0.24559 2.71127 0 1.47705 0.492349 3.859152 0.821045 4.926884-0.246687 0.24676-0.245591 0.49109-0.575512 0.49109-1.066692 0.164895-2.299192-2.627692-2.628019-4.926884-2.135668-2.381055 0.410487-3.449176-0.327274-4.515739-2.297843-0.817464-1.633758-2.649801-1.632043-3.908159-1.630873-0.258454 0.0012-0.493337 0.0015-0.689809-0.01371-1.067733-0.163727-0.656183-2.70897 3.366817-4.269053 2.972812-1.153104 5.271097-0.377667 7.396037 0.338053 0.751974 0.252607 1.481291 0.499002 2.211044 0.648694 2.791542 0.575383 5.173993 2.379689 6.569179 3.857909 1.478215 1.560081 5.419515 2.957023 6.815865 0.657831 1.47822-2.299192-0.98649-4.270076-3.53127-4.762426-0.53563-0.101745-1.04621-0.167547-1.53038-0.230698-1.892212-0.24559-3.368589-0.434846-4.218799-2.39606-1.067732-2.545952 2.70923-5.748239 7.718099-3.449047 5.00888 2.217329 9.11537 4.761076 11.57829 7.060268 2.21733 2.217328 5.5843 1.642621 4.18911-1.148921-8.04717-7.553652-18.72235-12.31835-30.545767-12.31835zm-32.037307 0.219277c-3.964715 0.102902-4.83095 3.768922-4.83095 8.156653 0 4.680247-3.696814 5.994965-5.502486 6.569179-1.160121 0.369554-1.779508-0.546568-2.941968-2.272717-0.649061-0.96131-1.466254-2.175248-2.642748-3.556401-3.283891-3.859274-9.606258-2.218313-9.933712 2.380071-0.328622 4.598383 5.254962 5.751 8.45816 6.160317 3.202029 0.410487 3.939951 3.284045 0.244403 6.815866-1.824385 1.742521-1.886442 3.565265-1.946085 5.331176-0.06315 1.80918-0.123254 3.558047-2.07628 5.09591-0.721568 0.595263-1.446737 1.139035-2.140237 1.658283-2.937727 2.198617-5.324323 3.983173-4.5934 7.702111 0.711043 3.619531 4.321791 5.457974 7.18818 6.918651 0.775363 0.394113 1.49589 0.761148 2.089985 1.128363 2.792711 1.724979 4.84403 5.994128 1.313379 9.771539s-0.902835 7.142135 1.315663 7.060275c2.216159-0.0819 4.596578 0.16502 4.022365 2.38236-0.15554 0.69467-0.608439 1.48044-1.107807 2.34351-1.092291 1.88871-2.400755 4.15482-1.274547 6.69025 1.643114 3.69554 4.681716 3.52869 7.638154 3.20007 2.956438-0.32746 5.499454 0.16641 6.89581 2.95796a27.874513 27.874513 0 0 1 0.858835 1.95751c0.874769 2.14716 1.670621 4.10646 4.068048 4.61167 2.05945 0.42218 4.186679-0.48082 6.142046-1.30881 1.085274-0.46077 2.118254-0.89812 3.056175-1.07355 1.506286-0.28301 4.578382-0.0516 7.26584 0.15076 1.999806 0.14969 3.787283 0.28341 4.559137 0.17816 1.47705-0.24676 1.312501-1.06699 0.326632-1.39561-23.401235-2.79154-41.466225-22.66471-41.466225-46.72203 0-17.243938 9.279568-32.353092 23.156582-40.563991 0.24676-0.328622 0.410048-0.656643 0.164458-0.902233-0.658416-0.575384-2.79345-0.985122-7.473697-1.395608-0.292515-0.02566-0.569395-0.03656-0.83371-0.02969zm68.252304 36.361179c-0.86995 0.02886-2.4122 0.393202-3.37138 2.425753-1.3145 2.955269 0.74076 6.484975 4.02464 5.253516 3.20203-1.23146 3.69555-6.978624 0-7.635871 0 0-0.25782-0.05652-0.65326-0.0434zm-36.653552 1.861572a4.7627 4.7627 0 0 0-4.4061 4.751005 4.7621152 4.7621152 0 0 0 9.522567 0h0.0023a4.7627 4.7627 0 0 0-5.118713-4.751005zm-58.734301 16.406957c-0.06406 2.3e-5 -0.128715-2.75e-4 -0.194151 0.0023 0 0-3.040041 0.248499-3.533561 3.533559-0.491179 3.283892 3.369142 5.335103 6.242547 3.364534 2.828509-1.939778 1.521363-6.901923-2.514835-6.900377zm75.120703 32.832198c-0.36255 6e-3 -0.90589 0.1724-1.70625 0.41799-1.76942 0.54147-4.793735 1.46893-9.890315 1.89811h-0.246688c-0.164896 0-0.411437 3.8e-4 -0.740059 0.0822-0.656078 0.0819-1.395243 0.32765-1.313379 0.82 0.08771 0.52744 1.000252 0.77438 2.080849 1.06441 0.936751 0.25144 2.001307 0.53797 2.763805 1.07126 1.643115 1.23263 4.516897 3.11956 7.391467 0.90224 2.87458-2.21733 2.79064-5.33671 2.13339-6.07582-0.1035-0.12936-0.25529-0.18413-0.47282-0.18044z" fill="#e16" stroke-width="1.16948"/></svg>
